M48
; DRILL file {KiCad (5.99.0-10577-g57d4347f00)} date Tue Jul 13 23:37:19 2021
; FORMAT={-:-/ absolute / inch / decimal}
; #@! TF.CreationDate,2021-07-13T23:37:19-07:00
; #@! TF.GenerationSoftware,Kicad,Pcbnew,(5.99.0-10577-g57d4347f00)
; #@! TF.FileFunction,Plated,1,2,PTH
FMAT,2
INCH
; #@! TA.AperFunction,Plated,PTH,ViaDrill
T1C0.0157
; #@! TA.AperFunction,Plated,PTH,ComponentDrill
T2C0.0236
; #@! TA.AperFunction,Plated,PTH,ComponentDrill
T3C0.0300
; #@! TA.AperFunction,Plated,PTH,ComponentDrill
T4C0.0354
; #@! TA.AperFunction,Plated,PTH,ComponentDrill
T5C0.0394
; #@! TA.AperFunction,Plated,PTH,ComponentDrill
T6C0.0579
; #@! TA.AperFunction,Plated,PTH,ComponentDrill
T7C0.1024
%
G90
G05
T1
X0.9724Y-3.937
X0.9823Y-3.7441
X0.9961Y-2.6555
X1.0374Y-5.4902
X1.063Y-3.6437
X1.085Y-5.185
X1.1142Y-4.0945
X1.29Y-2.25
X1.5Y-5.6437
X1.515Y-3.37
X1.6811Y-2.9902
X1.82Y-3.37
X1.995Y-3.46
X1.995Y-3.4994
X2.1299Y-3.2559
X2.161Y-3.5157
X2.2008Y-3.5728
X2.22Y-3.405
X2.22Y-3.455
X2.2283Y-5.0138
X2.2697Y-5.0138
X2.3898Y-5.5374
X2.3937Y-2.4154
X2.4331Y-2.7008
X2.4449Y-3.872
X2.4454Y-3.912
X2.4456Y-3.9927
X2.4456Y-3.9522
X2.4458Y-4.0329
X2.4458Y-4.0733
X2.4724Y-2.6654
X2.4882Y-5.5919
X2.5226Y-3.4788
X2.5531Y-2.378
X2.6083Y-2.5984
X2.6319Y-4.689
X2.6319Y-4.7303
X2.6417Y-4.3543
X2.682Y-2.3661
X2.7028Y-4.0591
X2.7264Y-2.815
X2.7303Y-3.8996
X2.7362Y-4.8681
X2.7362Y-5.0768
X2.7382Y-4.1909
X2.7776Y-2.4075
X2.7972Y-3.0965
X2.7972Y-3.1358
X2.7972Y-3.1752
X2.7972Y-3.2146
X2.8071Y-2.628
X2.8756Y-5.6205
X2.9094Y-2.7874
X2.9252Y-4.7362
X2.9252Y-4.7913
X2.9685Y-4.248
X2.9902Y-2.6732
X2.9902Y-2.7126
X3.2343Y-5.6634
X3.3051Y-5.7461
X3.4764Y-3.3858
X3.5551Y-2.3406
X3.5965Y-3.4173
X3.7343Y-2.0866
X3.7638Y-5.6713
X4.1102Y-5.5919
X4.2047Y-5.5984
X5.3465Y-5.748
X5.4409Y-4.2264
X5.7618Y-4.4409
X5.7638Y-2.6201
T3
X2.5161Y-4.4795
X2.5161Y-4.5795
X2.6161Y-4.4795
X2.6161Y-4.5795
X2.7161Y-4.4795
X2.7161Y-4.5795
T4
X2.5554Y-4.8723
X2.5554Y-5.0523
X2.5554Y-5.2323
X2.6554Y-4.8723
X2.6554Y-5.0523
X2.6554Y-5.2323
T5
X1.2066Y-2.1446
X1.2066Y-2.7154
X1.305Y-2.7154
X1.4034Y-2.1446
X1.4034Y-2.7154
T6
X1.1541Y-2.3173
X1.1541Y-3.0673
X1.1541Y-3.8173
X1.1541Y-4.5673
X1.1541Y-5.3173
X1.4041Y-2.2173
X1.4041Y-2.9673
X1.4041Y-3.7173
X1.4041Y-4.4673
X1.4041Y-5.2173
X1.9041Y-2.3173
X1.9041Y-3.0673
X1.9041Y-3.8173
X1.9041Y-4.5673
X1.9041Y-5.3173
X2.1541Y-2.2173
X2.1541Y-2.9673
X2.1541Y-3.7173
X2.1541Y-4.4673
X2.1541Y-5.2173
X3.0291Y-2.3173
X3.0291Y-3.0673
X3.0291Y-3.8173
X3.0291Y-4.5673
X3.0291Y-5.3173
X3.2791Y-2.2173
X3.2791Y-2.9673
X3.2791Y-3.7173
X3.2791Y-4.4673
X3.2791Y-5.2173
X3.4041Y-5.3173
X3.6541Y-5.2173
X3.7791Y-2.3173
X3.7791Y-3.0673
X3.7791Y-3.8173
X3.7791Y-4.5673
X3.7791Y-5.3173
X4.0291Y-2.2173
X4.0291Y-2.9673
X4.0291Y-3.7173
X4.0291Y-4.4673
X4.0291Y-5.2173
X4.5291Y-2.3173
X4.5291Y-3.0673
X4.5291Y-3.8173
X4.5291Y-4.5673
X4.5291Y-5.3173
X4.7791Y-2.2173
X4.7791Y-2.9673
X4.7791Y-3.7173
X4.7791Y-4.4673
X4.7791Y-5.2173
X5.2291Y-3.4423
X5.2291Y-4.9423
X5.2791Y-2.3173
X5.2791Y-3.0673
X5.2791Y-3.8173
X5.2791Y-4.5673
X5.2791Y-5.3173
X5.3291Y-3.6923
X5.3291Y-5.1923
X5.5291Y-2.2173
X5.5291Y-2.9673
X5.5291Y-3.7173
X5.5291Y-4.4673
X5.5291Y-5.2173
T7
X1.0845Y-2.4202
X1.5255Y-2.4202
T2
G00X2.4472Y-2.104
M15
G01X2.4472Y-2.1277
M16
G05
G00X2.4472Y-2.2595
M15
G01X2.4472Y-2.3029
M16
G05
G00X2.7858Y-2.104
M15
G01X2.7858Y-2.1277
M16
G05
G00X2.7858Y-2.2595
M15
G01X2.7858Y-2.3029
M16
G05
T0
M30
