M48
; DRILL file {KiCad (5.99.0-10577-g57d4347f00)} date Sat Jul 31 19:05:21 2021
; FORMAT={-:-/ absolute / inch / decimal}
; #@! TF.CreationDate,2021-07-31T19:05:21-07:00
; #@! TF.GenerationSoftware,Kicad,Pcbnew,(5.99.0-10577-g57d4347f00)
; #@! TF.FileFunction,NonPlated,1,2,NPTH
FMAT,2
INCH
; #@! TA.AperFunction,NonPlated,NPTH,ComponentDrill
T1C0.0256
; #@! TA.AperFunction,NonPlated,NPTH,ComponentDrill
T2C0.0689
; #@! TA.AperFunction,NonPlated,NPTH,ComponentDrill
T3C0.1200
; #@! TA.AperFunction,NonPlated,NPTH,ComponentDrill
T4C0.1570
%
G90
G05
T1
X2.5028Y-2.2595
X2.7303Y-2.2595
T2
X1.1041Y-2.4173
X1.1041Y-3.1673
X1.1041Y-3.9173
X1.1041Y-4.6673
X1.1041Y-5.4173
X1.5041Y-2.4173
X1.5041Y-3.1673
X1.5041Y-3.9173
X1.5041Y-4.6673
X1.5041Y-5.4173
X1.8541Y-2.4173
X1.8541Y-3.1673
X1.8541Y-3.9173
X1.8541Y-4.6673
X1.8541Y-5.4173
X2.2541Y-2.4173
X2.2541Y-3.1673
X2.2541Y-3.9173
X2.2541Y-4.6673
X2.2541Y-5.4173
X2.9791Y-2.4173
X2.9791Y-3.1673
X2.9791Y-3.9173
X2.9791Y-4.6673
X2.9791Y-5.4173
X3.3541Y-5.4173
X3.3791Y-2.4173
X3.3791Y-3.1673
X3.3791Y-3.9173
X3.3791Y-4.6673
X3.3791Y-5.4173
X3.7291Y-2.4173
X3.7291Y-3.1673
X3.7291Y-3.9173
X3.7291Y-4.6673
X3.7291Y-5.4173
X3.7541Y-5.4173
X4.1291Y-2.4173
X4.1291Y-3.1673
X4.1291Y-3.9173
X4.1291Y-4.6673
X4.1291Y-5.4173
X4.4791Y-2.4173
X4.4791Y-3.1673
X4.4791Y-3.9173
X4.4791Y-4.6673
X4.4791Y-5.4173
X4.8791Y-2.4173
X4.8791Y-3.1673
X4.8791Y-3.9173
X4.8791Y-4.6673
X4.8791Y-5.4173
X5.2291Y-2.4173
X5.2291Y-3.1673
X5.2291Y-3.9173
X5.2291Y-4.6673
X5.2291Y-5.4173
X5.4291Y-3.3423
X5.4291Y-3.7423
X5.4291Y-4.8423
X5.4291Y-5.2423
X5.6291Y-2.4173
X5.6291Y-3.1673
X5.6291Y-3.9173
X5.6291Y-4.6673
X5.6291Y-5.4173
T3
X3.0854Y-5.6923
X4.0229Y-5.6923
X5.7041Y-3.0736
X5.7041Y-4.0111
X5.7041Y-4.5736
X5.7041Y-5.5111
T4
X1.3041Y-2.4173
X1.3041Y-3.1673
X1.3041Y-3.9173
X1.3041Y-4.6673
X1.3041Y-5.4173
X2.0541Y-2.4173
X2.0541Y-3.1673
X2.0541Y-3.9173
X2.0541Y-4.6673
X2.0541Y-5.4173
X3.0854Y-5.0923
X3.1791Y-2.4173
X3.1791Y-3.1673
X3.1791Y-3.9173
X3.1791Y-4.6673
X3.1791Y-5.4173
X3.5541Y-5.4173
X3.9291Y-2.4173
X3.9291Y-3.1673
X3.9291Y-3.9173
X3.9291Y-4.6673
X3.9291Y-5.4173
X4.0229Y-5.0923
X4.6791Y-2.4173
X4.6791Y-3.1673
X4.6791Y-3.9173
X4.6791Y-4.6673
X4.6791Y-5.4173
X5.1041Y-3.0736
X5.1041Y-4.0111
X5.1041Y-4.5736
X5.1041Y-5.5111
X5.4291Y-2.4173
X5.4291Y-3.1673
X5.4291Y-3.5423
X5.4291Y-3.9173
X5.4291Y-4.6673
X5.4291Y-5.0423
X5.4291Y-5.4173
T0
M30
