M48
; DRILL file {KiCad (5.99.0-10577-g57d4347f00)} date Sat Jul 31 19:05:21 2021
; FORMAT={-:-/ absolute / inch / decimal}
; #@! TF.CreationDate,2021-07-31T19:05:21-07:00
; #@! TF.GenerationSoftware,Kicad,Pcbnew,(5.99.0-10577-g57d4347f00)
; #@! TF.FileFunction,Plated,1,2,PTH
FMAT,2
INCH
; #@! TA.AperFunction,Plated,PTH,ViaDrill
T1C0.0157
; #@! TA.AperFunction,Plated,PTH,ComponentDrill
T2C0.0236
; #@! TA.AperFunction,Plated,PTH,ComponentDrill
T3C0.0300
; #@! TA.AperFunction,Plated,PTH,ComponentDrill
T4C0.0354
; #@! TA.AperFunction,Plated,PTH,ComponentDrill
T5C0.0394
; #@! TA.AperFunction,Plated,PTH,ComponentDrill
T6C0.0579
; #@! TA.AperFunction,Plated,PTH,ComponentDrill
T7C0.1024
%
G90
G05
T1
X1.9331Y-3.6831
X1.9567Y-4.1319
X2.0236Y-3.3917
X2.0236Y-3.4331
X2.0984Y-4.0591
X2.122Y-3.6083
X2.1358Y-3.5079
X2.2087Y-3.8189
X2.2457Y-4.9626
X2.248Y-2.6555
X2.2677Y-2.9016
X2.3406Y-3.937
X2.3427Y-5.1019
X2.3701Y-3.9764
X2.3937Y-2.4213
X2.4016Y-4.7657
X2.4291Y-3.063
X2.4449Y-5.561
X2.4528Y-2.4331
X2.4528Y-4.126
X2.5154Y-2.4134
X2.5226Y-3.125
X2.5256Y-4.1673
X2.5945Y-4.0531
X2.5945Y-4.0965
X2.5945Y-4.1378
X2.5945Y-4.1811
X2.6161Y-2.5925
X2.6437Y-3.063
X2.685Y-3.8839
X2.7172Y-2.3931
X2.7539Y-2.6122
X2.7751Y-2.8351
X2.7992Y-3.1909
X2.8012Y-3.063
X2.8051Y-2.3917
X2.8287Y-3.8583
X2.8642Y-3.0059
X2.8917Y-3.2126
X2.9232Y-5.5059
X2.9325Y-3.7437
X2.9547Y-4.1831
X2.9547Y-4.2323
X2.9547Y-4.2835
X2.9557Y-4.062
X2.9744Y-4.9173
X2.9755Y-3.3633
X3.1732Y-2.6122
X3.1791Y-2.7992
X3.6437Y-5.5217
X3.7791Y-4.1939
X4.5291Y-4.2307
X5.2791Y-4.2831
T3
X2.5142Y-5.4469
X2.6142Y-5.4419
X2.7142Y-5.4469
X2.8803Y-2.6902
X2.8803Y-2.7902
X2.9803Y-2.6902
X2.9803Y-2.7902
X3.0803Y-2.6902
X3.0803Y-2.7902
T4
X2.5752Y-4.8701
X2.5752Y-5.0501
X2.5752Y-5.2301
X2.6752Y-4.8701
X2.6752Y-5.0501
X2.6752Y-5.2301
T5
X1.2066Y-2.1446
X1.2066Y-2.7154
X1.305Y-2.7154
X1.4034Y-2.1446
X1.4034Y-2.7154
T6
X1.1541Y-2.3173
X1.1541Y-3.0673
X1.1541Y-3.8173
X1.1541Y-4.5673
X1.1541Y-5.3173
X1.4041Y-2.2173
X1.4041Y-2.9673
X1.4041Y-3.7173
X1.4041Y-4.4673
X1.4041Y-5.2173
X1.9041Y-2.3173
X1.9041Y-3.0673
X1.9041Y-3.8173
X1.9041Y-4.5673
X1.9041Y-5.3173
X2.1541Y-2.2173
X2.1541Y-2.9673
X2.1541Y-3.7173
X2.1541Y-4.4673
X2.1541Y-5.2173
X3.0291Y-2.3173
X3.0291Y-3.0673
X3.0291Y-3.8173
X3.0291Y-4.5673
X3.0291Y-5.3173
X3.2791Y-2.2173
X3.2791Y-2.9673
X3.2791Y-3.7173
X3.2791Y-4.4673
X3.2791Y-5.2173
X3.4041Y-5.3173
X3.6541Y-5.2173
X3.7791Y-2.3173
X3.7791Y-3.0673
X3.7791Y-3.8173
X3.7791Y-4.5673
X3.7791Y-5.3173
X4.0291Y-2.2173
X4.0291Y-2.9673
X4.0291Y-3.7173
X4.0291Y-4.4673
X4.0291Y-5.2173
X4.5291Y-2.3173
X4.5291Y-3.0673
X4.5291Y-3.8173
X4.5291Y-4.5673
X4.5291Y-5.3173
X4.7791Y-2.2173
X4.7791Y-2.9673
X4.7791Y-3.7173
X4.7791Y-4.4673
X4.7791Y-5.2173
X5.2291Y-3.4423
X5.2291Y-4.9423
X5.2791Y-2.3173
X5.2791Y-3.0673
X5.2791Y-3.8173
X5.2791Y-4.5673
X5.2791Y-5.3173
X5.3291Y-3.6923
X5.3291Y-5.1923
X5.5291Y-2.2173
X5.5291Y-2.9673
X5.5291Y-3.7173
X5.5291Y-4.4673
X5.5291Y-5.2173
T7
X1.0845Y-2.4202
X1.5255Y-2.4202
T2
G00X2.4472Y-2.104
M15
G01X2.4472Y-2.1277
M16
G05
G00X2.4472Y-2.2595
M15
G01X2.4472Y-2.3029
M16
G05
G00X2.7858Y-2.104
M15
G01X2.7858Y-2.1277
M16
G05
G00X2.7858Y-2.2595
M15
G01X2.7858Y-2.3029
M16
G05
T0
M30
